<svg xmlns="http://www.w3.org/2000/svg" viewBox="0 0 1000 1000">
  <defs>
    <linearGradient id="wbGrad" x1="0" y1="0" x2="1" y2="1">
      <stop offset="0" stop-color="#6F01FB"/>
      <stop offset="1" stop-color="#FF49D7"/>
    </linearGradient>
  </defs>
  <rect width="1000" height="1000" rx="200" fill="url(#wbGrad)"/>
  <path fill="#fff" d="M761,352.9c-35.8,0-68.2,10.8-95.8,29.4V213h-76.4v312c0,94.9,77.2,171.3,171.7,171.3c94.5,0,172.6-75.9,172.6-172.2C933.2,427.9,856.8,352.9,761,352.9z M414.3,547.1L344.4,365h-53.5l-70.3,182.1L150.2,365H66.9l123,320.2h53.5l73.8-190.7l74.2,190.7h53.5L567.5,365h-82.9L414.3,547.1z M760.6,620c-51.8,0-95.4-41.4-95.4-95.4c0-54,41-94.9,95.8-94.9c54.8,0,95.8,42.7,95.8,94.9C856.8,576.9,813.2,620,760.6,620z"/>
</svg>
